<?xml version="1.0" standalone="no"?><!DOCTYPE svg PUBLIC "-//W3C//DTD SVG 1.1//EN" "http://www.w3.org/Graphics/SVG/1.1/DTD/svg11.dtd"><svg t="1534296952806" class="icon" style="" viewBox="0 0 1024 1024" version="1.1" xmlns="http://www.w3.org/2000/svg" p-id="4128" xmlns:xlink="http://www.w3.org/1999/xlink" width="40" height="40"><defs><style type="text/css"></style></defs><path d="M435.2 487.3L185 356.4l-0.5-0.3c-9.3-4.8-19.6-7.4-30.1-7.6-25.1 0-43.3 17.9-43.3 42.7v353c0 27.3 22.4 59 52.5 73.7l250.1 130.9 0.5 0.3c9.3 4.7 19.6 7.3 30.1 7.5h0.1c25.1 0 43.3-17.9 43.3-42.7V561c0-27.3-22.5-58.9-52.5-73.7z m2.3 357.1c0 18.2-13.4 31.3-31.8 31.3h-0.1c-7.7-0.2-15.2-2-22.1-5.5l-0.4-0.2-183.5-96.1c-22.1-10.8-38.5-34-38.5-54.1v-259c0-18.2 13.4-31.3 31.8-31.3 7.7 0.1 15.2 2 22.1 5.5l0.4 0.2L399 531.4c22 10.8 38.5 34 38.5 54.1v258.9z m474.4-100.1v-353c0-24.7-18.2-42.7-43.3-42.7h-0.1c-10.5 0.2-20.8 2.8-30.1 7.5l-0.5 0.3-250.1 131c-30 14.7-52.5 46.4-52.5 73.7v353c0 24.7 18.2 42.7 43.3 42.7 10.5-0.2 20.8-2.8 30.1-7.6l0.5-0.3 250.2-131c30-14.7 52.5-46.3 52.5-73.6z m-50.1-24.4c0 20-16.5 43.2-38.5 54.1l-183.7 96-0.4 0.2c-6.8 3.5-14.4 5.4-22.1 5.5-18.4 0-31.8-13.2-31.8-31.3v-259c0-20 16.4-43.3 38.5-54.1l183.5-96.1 0.4-0.2c6.8-3.5 14.4-5.4 22-5.5h0.1c18.4 0 31.8 13.2 31.8 31.3v259.1z m-22.4-506.6L559.6 75.8c-16-7.3-33.5-11-51.1-10.7-18.7-0.3-37.2 3.7-54.2 11.7L171.6 220.1c-19.5 9.9-30.7 25.6-30.6 42.5 0.1 16.9 11.2 32 30.4 41.4l279.8 137.5c16.1 7.3 33.5 11 51.2 10.7v-0.1c18.7 0.3 37.2-3.7 54.1-11.7l282.8-143.2c19.5-9.9 30.6-25.6 30.5-42.5-0.2-16.9-11.3-32-30.4-41.4z m-101.2 72.2L541 385.4c-11.8 5.6-24.7 8.4-37.8 8.2-12.3 0.2-24.5-2.3-35.7-7.5l-195.2-95.9c-13.4-6.6-21.1-17.1-21.2-28.9-0.1-11.8 7.7-22.7 21.3-29.6l197.2-100c11.8-5.5 24.7-8.3 37.8-8.2 12.3-0.2 24.5 2.4 35.7 7.5l195.3 96c13.3 6.6 21 17.1 21.1 28.9 0 11.8-7.7 22.7-21.3 29.6z m0 0" p-id="4129"></path></svg>