<?xml version="1.0" standalone="no"?><!DOCTYPE svg PUBLIC "-//W3C//DTD SVG 1.1//EN" "http://www.w3.org/Graphics/SVG/1.1/DTD/svg11.dtd"><svg t="1534295598897" class="icon" style="" viewBox="0 0 1024 1024" version="1.1" xmlns="http://www.w3.org/2000/svg" p-id="5234" xmlns:xlink="http://www.w3.org/1999/xlink" width="40" height="40"><defs><style type="text/css"></style></defs><path d="M487.0144 839.68a235.9296 235.9296 0 0 0-30.3104-30.72 97.4848 97.4848 0 0 0-56.9344-27.648h-225.28V193.1264h266.24a135.3728 135.3728 0 0 1 53.4528 14.9504 112.2304 112.2304 0 0 1 20.48 14.5408 112.2304 112.2304 0 0 1 20.48-14.5408 135.3728 135.3728 0 0 1 53.4528-14.9504h261.12v588.3904H632.0128a98.9184 98.9184 0 0 0-56.9344 27.0336A240.0256 240.0256 0 0 0 543.3344 839.68l-28.2624 35.84z m49.7664-55.9104a242.4832 242.4832 0 0 1 31.1296-24.1664A120.2176 120.2176 0 0 1 632.0128 737.28h173.8752V237.1584h-215.04a81.92 81.92 0 0 0-54.272 25.6zM399.7696 737.28a117.3504 117.3504 0 0 1 62.464 20.48 231.8336 231.8336 0 0 1 30.3104 23.3472V262.7584a81.92 81.92 0 0 0-54.0672-25.6h-27.2384v222.208h-44.032V237.1584h-148.8896V737.28z m0 0" fill="#2c2c2c" p-id="5235"></path></svg>