<?xml version="1.0" standalone="no"?><!DOCTYPE svg PUBLIC "-//W3C//DTD SVG 1.1//EN" "http://www.w3.org/Graphics/SVG/1.1/DTD/svg11.dtd"><svg t="1534295537341" class="icon" style="" viewBox="0 0 1024 1024" version="1.1" xmlns="http://www.w3.org/2000/svg" p-id="3166" xmlns:xlink="http://www.w3.org/1999/xlink" width="40" height="40"><defs><style type="text/css"></style></defs><path d="M981.3504 947.2H42.6496V563.2h938.6496v384z m-887.5008-51.2h836.2496V614.4H93.8496v281.6z" p-id="3167"></path><path d="M853.3504 614.4H170.6496V153.6c0-28.2112 22.9888-51.2 51.2-51.2h580.2496c28.2624 0 51.2 22.9888 51.2 51.2v460.8zM221.8496 563.2h580.2496V153.6H221.8496v409.6z" p-id="3168"></path><path d="M332.8 256h358.4a25.6 25.6 0 0 1 0 51.2h-358.4a25.6 25.6 0 0 1 0-51.2zM332.8 358.4h358.4a25.6 25.6 0 0 1 0 51.2h-358.4a25.6 25.6 0 0 1 0-51.2z" p-id="3169"></path></svg>