<?xml version="1.0" encoding="utf-8"?>
<!-- Generator: Adobe Illustrator 22.0.1, SVG Export Plug-In . SVG Version: 6.00 Build 0)  -->
<svg version="1.1" id="图层_1" xmlns="http://www.w3.org/2000/svg" xmlns:xlink="http://www.w3.org/1999/xlink" x="0px" y="0px"
	 viewBox="0 0 40 40" style="enable-background:new 0 0 40 40;" xml:space="preserve">
<style type="text/css">
	.st0{fill:#0C6CFF;}
	.st1{fill:none;}
</style>
<g>
	<g>
		<path class="st0" d="M19.8,4.5c-5.4,0-9.8,4.4-9.8,9.8s5.4,12.2,9.8,17.8c4.4-5.6,9.8-12.4,9.8-17.8S25.2,4.5,19.8,4.5z
			 M19.8,20.9c-3.6,0-6.6-3-6.6-6.6s3-6.6,6.6-6.6s6.6,3,6.6,6.6C26.4,18.1,23.4,20.9,19.8,20.9z"/>
		<path class="st0" d="M16,14.3c0,1,0.4,2,1,2.6s1.6,1,2.6,1s2-0.4,2.6-1s1-1.6,1-2.6s-0.4-2-1-2.6c-0.4-0.6-1.4-1-2.4-1
			s-2,0.4-2.6,1C16.4,12.5,16,13.3,16,14.3z M19.8,36.5c-6.4,0-12.8-2-12.8-5.8c0-2.2,2.2-3.8,5.8-5c0.6-0.2,1.4,0.2,1.6,0.8
			c0.2,0.6-0.2,1.4-0.8,1.6c-2.8,0.8-4,1.8-4,2.6c0,1.4,4,3.4,10.4,3.4s10.4-2,10.4-3.4c0-0.8-1.6-2-4.4-2.8c-0.6-0.2-1-0.8-0.8-1.6
			c0.2-0.6,0.8-1,1.6-0.8c3.8,1,6.2,2.8,6.2,5C32.6,34.5,26.2,36.5,19.8,36.5z"/>
	</g>
	<rect x="0" y="0.5" class="st1" width="40" height="40"/>
</g>
</svg>
