<?xml version="1.0" standalone="no"?><!DOCTYPE svg PUBLIC "-//W3C//DTD SVG 1.1//EN" "http://www.w3.org/Graphics/SVG/1.1/DTD/svg11.dtd"><svg t="1534295620873" class="icon" style="" viewBox="0 0 1024 1024" version="1.1" xmlns="http://www.w3.org/2000/svg" p-id="5530" xmlns:xlink="http://www.w3.org/1999/xlink" width="40" height="40"><defs><style type="text/css"></style></defs><path d="M936.53504 124.6208c-69.9904-74.59328-144.93696-90.41408-195.39456-90.41408-70.38464 0-129.45408 29.78816-158.73536 55.12192-14.41792 12.4928-33.38752 30.15168-54.81472 50.87744l-15.09376 14.98112-16.08704-15.96416c-21.43232-20.72064-40.3968-38.37952-54.81472-50.87744C412.3136 63.01696 353.24416 33.2288 282.85952 33.2288c-50.46272 0-125.40928 15.8208-195.39456 90.40896C14.93504 201.03168 3.11296 280.832 6.2208 334.14144c3.5072 64.2816 29.3376 117.29408 50.51392 143.07328 13.42976 16.65024 73.03168 81.18784 95.08864 104.82176l-11.75552 11.84256c-28.81024 29.25568-28.44672 76.32384 0.79872 105.12896a74.3424 74.3424 0 0 0 51.8144 21.376c5.70368 0 11.264-0.74752 16.61952-2.00192a73.81504 73.81504 0 0 0 21.3248 62.72512 73.60512 73.60512 0 0 0 66.12992 20.33152 73.28256 73.28256 0 0 0 21.5296 60.5696A73.15456 73.15456 0 0 0 384.6656 882.176a73.82016 73.82016 0 0 0 21.47328 61.02528c13.92128 13.97248 32.59392 21.57568 52.21376 21.57568 13.96736 0 27.28448-3.75296 38.84544-10.96192l16.47104 16.52224c13.6192 13.66528 31.83104 20.42368 50.51392 20.42368 20.97664 0 42.64448-8.45824 59.32032-25.08288a83.5584 83.5584 0 0 0 24.6272-70.32832c3.10784 0.24576 6.11328 0.54784 9.3696 0.54784 1.64864 0 3.2512-0.14848 4.95616-0.14848a85.82656 85.82656 0 0 0 55.26528-25.52832c15.22176-15.22176 24.38144-34.79552 25.7792-55.2704a88.3712 88.3712 0 0 0-0.39936-13.6704c2.70336 0.3072 5.41184 0.40448 8.11008 0.40448 1.70496 0 3.3024 0 5.00736-0.1024a86.69184 86.69184 0 0 0 55.3216-25.37984c19.92704-19.87584 28.38528-46.65856 25.03168-70.9376a65.9968 65.9968 0 0 0 10.91072 0.84992c21.2736 0 43.35616-8.70912 60.47744-25.7792l0.34816-0.29696c29.4912-31.2832 30.4896-81.60256 2.2528-110.08512l-13.36832-14.21312c18.37568-19.62496 55.86944-59.9296 70.08256-77.54752 21.18144-25.78432 47.01184-78.7968 50.51392-143.07328 3.0976-53.30944-8.71936-133.10464-81.2544-210.49856zM221.11744 674.24256a39.7568 39.7568 0 0 1-56.21248 0.55296l-0.26112-0.26112a40.0384 40.0384 0 0 1-0.29696-56.51456l104.62208-105.32864a39.1936 39.1936 0 0 1 28.38528-11.81184 39.63904 39.63904 0 0 1 39.89504 39.39328v0.35328a39.4496 39.4496 0 0 1-11.56096 28.32896l-104.57088 105.28768z m90.20416 82.34496a39.99744 39.99744 0 1 1-56.76544-56.22272l104.6272-105.32352a39.80288 39.80288 0 0 1 68.28032 27.88352 39.90016 39.90016 0 0 1-11.51488 28.33408l-104.6272 105.32864z m87.7056 80.896a39.936 39.936 0 0 1-56.48896 0.67584 39.94112 39.94112 0 0 1-0.68096-56.48384l0.39936-0.41472 104.63232-105.3184a39.99232 39.99232 0 1 1 56.66816 56.26368l-104.52992 105.27744z m87.8592 81.2032a39.74656 39.74656 0 0 1-56.4224 0.29696 39.94624 39.94624 0 0 1-0.27136-56.49408l0.02048-0.02048 104.5248-105.32864a39.84384 39.84384 0 0 1 56.35584-0.41472l0.16384 0.16384c15.67232 15.51872 15.72352 40.85248 0.19968 56.51456l-104.57088 105.28256z m112.64 22.72256c-18.32448 18.176-45.90592 20.2752-61.48096 4.80768l-15.11936-15.22688 66.08384-66.57536 15.41632 15.5136c15.6672 15.67232 13.41952 43.15648-4.89984 61.48096z m284.2368-285.19424c-18.77504 18.62144-46.55616 20.97664-62.02368 5.50912l-0.14848-0.15872-140.3136-132.75648-13.6192 14.36672-10.46528 10.41408 136.0128 136.30976c15.56992 15.52384 13.01504 43.30496-5.5552 61.88544a52.3008 52.3008 0 0 1-33.29024 15.66208 36.5312 36.5312 0 0 1-28.78464-10.31168l-139.01312-139.264-24.28416 24.07424 1.152 1.10592 135.81824 140.71296 0.25088 0.1536a36.7616 36.7616 0 0 1 9.95328 28.73344 51.70688 51.70688 0 0 1-15.616 33.23392 51.43552 51.43552 0 0 1-33.29024 15.51872 36.16768 36.16768 0 0 1-28.78464-10.15808l-14.86336-14.97088c28.22656-29.696 27.03872-76.65664-2.66752-104.8832a74.17856 74.17856 0 0 0-51.05152-20.41344c-4.80768 0-9.55904 0.45056-14.21312 1.44896 4.73088-40.64256-24.37632-77.42976-65.024-82.17088a74.1376 74.1376 0 0 0-22.48704 0.8192 73.2672 73.2672 0 0 0-21.5296-60.6208 73.2928 73.2928 0 0 0-52.25984-21.5808c-5.6576 0-11.2128 0.70656-16.62464 1.85856a73.22624 73.22624 0 0 0-21.2736-62.57664 73.84576 73.84576 0 0 0-52.36224-21.5808 73.99424 73.99424 0 0 0-52.72064 21.83168l-66.37568 66.97984-2.38592 2.40128c-20.98176-22.4512-80.38912-86.82496-92.95872-102.1952-17.8176-21.83168-39.64928-67.23584-42.752-123.35616-2.50368-46.65344 8.05376-116.53632 72.23296-185.22624 49.36192-52.7104 106.68032-79.49312 170.35776-79.49312 60.92288 0 111.44192 25.23136 136.21248 46.65856 17.3056 15.02208 41.7536 38.15936 69.28896 65.00352L419.64032 247.30624C349.3888 318.33088 285.53216 384.768 280.63744 389.74464l-11.3152 11.86304 11.3152 11.96032c3.15392 3.15392 76.544 78.54592 158.74048 78.54592 3.3536 0 6.656 0 9.86112-0.30208 6.66112-0.25088 76.14464-4.65408 130.6624-57.216l82.24768-76.24704 116.74112 121.6512-0.2048 0.09728 107.28448 113.536 0.25088 0.25088c15.17056 15.11424 13.96224 44.86144-2.4576 62.33088z m100.02432-322.99008c-3.10272 56.1152-24.9344 101.52448-42.75712 123.34592-13.01504 15.9232-47.80544 53.41696-66.58048 73.44128l-210.85696-219.76576-107.07968 99.36896-0.30208 0.30208c-46.30528 44.70272-107.93472 47.65696-108.57984 47.65696h-0.70656c-2.35008 0.30208-4.95616 0.30208-7.50592 0.30208-50.36544 0-99.81952-37.49376-121.99424-56.81664 47.30368-49.05984 220.66176-227.82464 287.54944-285.9008 24.77568-21.42208 75.2896-46.65344 136.21248-46.65344 63.67744 0 120.99584 26.7776 170.35264 79.49824 64.18944 68.67456 74.752 138.56256 72.24832 185.22112z" fill="" p-id="5531"></path></svg>