<?xml version="1.0" standalone="no"?><!DOCTYPE svg PUBLIC "-//W3C//DTD SVG 1.1//EN" "http://www.w3.org/Graphics/SVG/1.1/DTD/svg11.dtd"><svg t="1534295573516" class="icon" style="" viewBox="0 0 1024 1024" version="1.1" xmlns="http://www.w3.org/2000/svg" p-id="4526" xmlns:xlink="http://www.w3.org/1999/xlink" width="40" height="40"><defs><style type="text/css"></style></defs><path d="M213.4 213.1h119.3v119.3H213.4V213.1z m-59.7-89.6c-16.5 0-29.8 13.4-29.8 29.8V392c0 16.5 13.4 29.8 29.8 29.8h238.7c16.5 0 29.8-13.4 29.8-29.8V153.4c0-16.5-13.4-29.8-29.8-29.8H153.7z m-29.8-59.6h298.4c33 0 59.7 26.7 59.7 59.7V422c0 33-26.7 59.7-59.7 59.7H123.9c-33 0-59.7-26.7-59.7-59.7V123.5c0-32.9 26.7-59.6 59.7-59.6zM213.4 690.5h119.3v119.3H213.4V690.5z m-59.7-89.6c-16.5 0-29.8 13.4-29.8 29.8v238.7c0 16.5 13.4 29.8 29.8 29.8h238.7c16.5 0 29.8-13.4 29.8-29.8V630.8c0-16.5-13.4-29.8-29.8-29.8H153.7z m-29.8-59.6h298.4c33 0 59.7 26.7 59.7 59.7v298.4c0 33-26.7 59.7-59.7 59.7H123.9c-33 0-59.7-26.7-59.7-59.7V600.9c0-32.9 26.7-59.6 59.7-59.6zM690.8 213.1h119.3v119.3H690.8V213.1z m-59.7-89.6c-16.5 0-29.8 13.4-29.8 29.8V392c0 16.5 13.4 29.8 29.8 29.8h238.7c16.5 0 29.8-13.4 29.8-29.8V153.4c0-16.5-13.4-29.8-29.8-29.8H631.1z m-29.8-59.6h298.4c33 0 59.7 26.7 59.7 59.7V422c0 33-26.7 59.7-59.7 59.7H601.3c-33 0-59.7-26.7-59.7-59.7V123.5c0-32.9 26.7-59.6 59.7-59.6zM720.6 869.5h89.5V959h-89.5zM869.8 869.5h89.5V959h-89.5z" p-id="4527"></path><path d="M750.5 780h-59.7V600.9h-89.5V959h-59.7V541.3H750.5v179h149.2v-179h59.6V780h-59.6z" p-id="4528"></path></svg>