<?xml version="1.0" standalone="no"?><!DOCTYPE svg PUBLIC "-//W3C//DTD SVG 1.1//EN" "http://www.w3.org/Graphics/SVG/1.1/DTD/svg11.dtd"><svg t="1534295509000" class="icon" style="" viewBox="0 0 1024 1024" version="1.1" xmlns="http://www.w3.org/2000/svg" p-id="2440" xmlns:xlink="http://www.w3.org/1999/xlink" width="40" height="40"><defs><style type="text/css"></style></defs><path d="M814.592 467.968zM152.064 798.208c0-5.632 0-11.264 0.512-16.896H102.4v-40.448c-1.024-113.664 78.848-211.968 189.952-234.496 14.336-11.264 29.184-20.992 44.544-29.696-4.096-5.12-8.192-10.24-11.776-15.872C259.584 454.656 209.92 399.36 210.432 333.824c-0.512-61.952 43.52-114.688 104.448-125.952 7.68-12.8 16.384-25.088 26.112-36.352h-6.144c-88.576 1.536-159.232 74.24-158.208 162.816 0 49.664 22.016 96.768 60.928 128l15.872 12.8-18.432 7.68c-104.448 43.52-172.544 145.92-171.52 259.072v58.368c0 9.216 7.168 16.896 16.384 17.408h72.192v-19.456z m719.872 0c0-5.632 0-11.264-0.512-16.896h50.176v-40.448c1.024-113.664-78.848-211.968-189.952-234.496-14.336-11.264-29.184-20.992-44.544-29.696 4.096-5.12 8.192-10.24 11.776-15.872 65.024-6.656 114.688-61.44 114.176-126.976 0.512-61.952-43.52-114.688-104.448-125.952-7.68-12.8-16.384-25.088-26.112-36.352h6.144c88.576 1.536 159.232 74.24 158.208 162.816 0 49.664-22.016 96.768-60.928 128l-15.872 12.8 18.432 7.68c104.448 43.52 172.544 145.92 171.52 259.072v58.368c0 9.216-7.168 16.896-16.384 17.408h-72.192l0.512-19.456z" fill="#c0c0c0" p-id="2441"></path><path d="M834.048 798.208c1.024-134.144-79.36-256-203.264-307.2l-8.704-3.584L629.76 481.28c46.592-37.376 73.728-94.208 73.728-154.112 1.536-107.008-84.48-195.072-191.488-196.608-107.52 1.536-193.024 89.088-191.488 196.096 0 59.904 26.624 116.736 73.728 154.112l7.68 6.144-9.216 3.584c-123.904 51.2-204.288 173.056-203.264 307.2V865.28c0 15.36 11.776 27.648 27.136 28.16h590.848c15.36 0 27.136-12.8 27.136-28.16v-67.072h-0.512zM375.296 326.656c-2.56-75.264 56.32-138.24 131.584-140.8s138.24 56.32 140.8 131.584v9.216c2.56 75.264-56.32 138.24-131.584 140.8s-138.24-56.32-140.8-131.584v-9.216z m397.824 509.44H249.856v-38.4c-1.536-146.432 115.2-266.24 261.632-268.288 145.92 2.048 263.168 121.856 261.632 268.288v38.4z m41.472-368.128z" fill="#666666" p-id="2442"></path></svg>