<?xml version="1.0" standalone="no"?><!DOCTYPE svg PUBLIC "-//W3C//DTD SVG 1.1//EN" "http://www.w3.org/Graphics/SVG/1.1/DTD/svg11.dtd"><svg t="1534295646459" class="icon" style="" viewBox="0 0 1091 1024" version="1.1" xmlns="http://www.w3.org/2000/svg" p-id="6265" xmlns:xlink="http://www.w3.org/1999/xlink" width="42.6171875" height="40"><defs><style type="text/css"></style></defs><path d="M926.996 469.258a30.314 30.314 0 0 0-28.798 28.495v269.792a28.495 28.495 0 0 0 8.488 20.007 30.314 30.314 0 0 0 20.31 8.488h78.21a28.495 28.495 0 0 0 20.007-8.488 28.495 28.495 0 0 0 8.487-20.007V497.753a28.495 28.495 0 0 0-7.275-19.098 28.495 28.495 0 0 0-20.31-8.488z m-306.17 411.66l-3.03-1.818a46.683 46.683 0 0 0-60.628 17.885 46.077 46.077 0 0 0-6.063 21.826v2.122a44.258 44.258 0 0 0 1.515 10.913 46.077 46.077 0 0 0 19.704 27.282l3.638 2.122a46.683 46.683 0 0 0 60.628-16.672l1.819-3.032a46.683 46.683 0 0 0 3.637-33.345 46.077 46.077 0 0 0-20.31-27.282z m27.283-50.32A103.37 103.37 0 0 1 686 971.86a103.976 103.976 0 0 1-140.353 38.196 103.673 103.673 0 0 1-47.29-60.628H309.202a461.376 461.376 0 0 1-218.26-63.053A173.698 173.698 0 0 1 0 738.141V498.056a86.091 86.091 0 0 1 86.091-85.788h12.126a452.585 452.585 0 0 1 901.532 0h5.456a86.091 86.091 0 0 1 60.628 25.16l1.819 2.122a85.788 85.788 0 0 1 23.645 58.506v269.792a85.485 85.485 0 0 1-25.464 60.628 86.091 86.091 0 0 1-60.628 25.464h-78.21a86.091 86.091 0 0 1-60.627-25.464 85.788 85.788 0 0 1-25.463-60.628V498.056a86.091 86.091 0 0 1 86.09-85.788h15.46a394.08 394.08 0 0 0-786.642 0h8.488a85.788 85.788 0 0 1 60.627 25.16l1.82 2.122a85.788 85.788 0 0 1 23.644 58.506v242.51a28.798 28.798 0 0 1-57.293 0v-242.51a28.495 28.495 0 0 0-7.579-19.098 28.495 28.495 0 0 0-20.007-8.488H86.091a30.314 30.314 0 0 0-28.798 28.495v240.388a121.255 121.255 0 0 0 63.962 98.823 398.93 398.93 0 0 0 189.765 53.656h185.823a105.795 105.795 0 0 1 9.7-23.039 103.37 103.37 0 0 1 141.566-37.892z" p-id="6266"></path></svg>