<?xml version="1.0" encoding="utf-8"?>
<!-- Generator: Adobe Illustrator 22.0.1, SVG Export Plug-In . SVG Version: 6.00 Build 0)  -->
<svg version="1.1" id="图层_1" xmlns="http://www.w3.org/2000/svg" xmlns:xlink="http://www.w3.org/1999/xlink" x="0px" y="0px"
	 viewBox="0 0 40 40" style="enable-background:new 0 0 40 40;" xml:space="preserve">
<path d="M20,17.7c7.2,0,13.1-3.4,13.1-7.6S27.2,2.5,20,2.5S6.9,5.9,6.9,10.1C6.9,14.3,12.8,17.7,20,17.7z M20,4.6
	c6,0,11.5,2.8,11.5,5.2S26,15,20,15c-6,0-11.5-2.9-11.5-5.2C8.5,7.4,14,4.6,20,4.6z M20,20.8c-6.2,0-11.5-3.3-12.8-6.9
	C7,14.5,6.9,15,6.9,15.6c0,4.2,5.9,7.6,13.1,7.6c7.2,0,13.1-3.4,13.1-7.6c0-0.6-0.1-1.1-0.3-1.7C31.5,17.5,26.2,20.8,20,20.8z
	 M20,26.3c-6,0-11-3.7-12.6-7.3c-0.3,0.7-0.5,1.4-0.5,2.1c0,4.2,5.9,7.6,13.1,7.6c7.2,0,13.1-3.4,13.1-7.6c0-0.7-0.2-1.4-0.5-2.1
	C31,22.6,26,26.3,20,26.3z M20,30.7c-6.2,0-11.5-3.3-12.8-6.9c-0.2,0.5-0.3,1.1-0.3,1.7c0,4.2,5.9,7.6,13.1,7.6
	c7.2,0,13.1-3.4,13.1-7.6c0-0.6-0.1-1.1-0.3-1.7C31.5,27.4,26.2,30.7,20,30.7z M20,35.1c-6.2,0-11.5-3.3-12.8-6.9
	c-0.2,0.5-0.3,1.1-0.3,1.7c0,4.2,5.9,7.6,13.1,7.6c7.2,0,13.1-3.4,13.1-7.6c0-0.6-0.1-1.1-0.3-1.7C31.5,31.8,26.2,35.1,20,35.1z"/>
</svg>
