<?xml version="1.0" encoding="utf-8"?>
<!-- Generator: Adobe Illustrator 22.0.1, SVG Export Plug-In . SVG Version: 6.00 Build 0)  -->
<svg version="1.1" id="图层_1" xmlns="http://www.w3.org/2000/svg" xmlns:xlink="http://www.w3.org/1999/xlink" x="0px" y="0px"
	 viewBox="0 0 40 40" style="enable-background:new 0 0 40 40;" xml:space="preserve">
<path d="M33.3,5.4l-1-0.3C32,5,31.9,4.9,31.8,4.7l-0.3-1c-0.2-0.5-0.9-0.5-1.1,0l-0.3,1C30,4.9,29.9,5,29.7,5.1l-1,0.3
	c-0.5,0.2-0.5,0.9,0,1.1l1,0.3c0.2,0.1,0.3,0.2,0.4,0.4l0.3,1c0.2,0.5,0.9,0.5,1.1,0l0.3-1c0.1-0.2,0.2-0.3,0.4-0.4l1-0.3
	C33.8,6.4,33.8,5.6,33.3,5.4z M4.9,7.9l1,0.4c0.2,0.1,0.3,0.2,0.4,0.4l0.3,1.1c0.1,0.6,0.9,0.6,1.1,0l0.4-1c0.1-0.2,0.2-0.3,0.4-0.4
	L9.5,8c0.6-0.1,0.6-0.9,0-1.1l-1-0.4C8.3,6.5,8.2,6.3,8.1,6.2L7.8,5.1c-0.1-0.6-0.9-0.6-1.1,0l-0.4,1C6.3,6.3,6.1,6.4,6,6.5L4.9,6.8
	C4.3,6.9,4.3,7.7,4.9,7.9z M9.6,9.7c-0.2,0.3,0,0.8,0.3,0.9c0.1,0,3.6,2,4.8,5c0.1,0.3,0.4,0.5,0.6,0.5c0.1,0,0.2,0,0.3,0
	c0.4-0.2,0.5-0.6,0.4-0.9c-1.4-3.5-5.3-5.7-5.5-5.8C10.2,9.3,9.7,9.4,9.6,9.7z M10.2,15.8c-0.3-0.2-0.8-0.1-1,0.3
	c-0.2,0.3-0.1,0.8,0.3,1l2.8,1.6c0.1,0.1,0.2,0.1,0.3,0.1c0.3,0,0.5-0.1,0.6-0.4c0.2-0.3,0.1-0.8-0.3-1L10.2,15.8z M7.8,14.6
	c-0.4-0.2-0.8,0.1-0.9,0.4c-0.1,0.4,0.1,0.8,0.4,0.9h0.1C7.4,16,7.5,16,7.5,16c0.3,0,0.5-0.2,0.7-0.5C8.3,15.1,8.1,14.7,7.8,14.6z
	 M4.8,15.1L4.8,15.1c0.4,0,0.8-0.3,0.8-0.7c0-0.4-0.3-0.7-0.7-0.8H4.9c-0.4,0-0.7,0.3-0.8,0.7C4.1,14.7,4.4,15,4.8,15.1L4.8,15.1z
	 M18.2,14h0.2c0.3,0,0.6-0.2,0.7-0.5l0.7-3c0.1-0.4-0.2-0.8-0.5-0.8c-0.4-0.1-0.8,0.2-0.8,0.5l-0.7,3C17.5,13.6,17.8,14,18.2,14z
	 M19.4,8.3h0.2c0.3,0,0.6-0.2,0.7-0.5V7.7c0.1-0.4-0.2-0.8-0.5-0.8c-0.4-0.1-0.8,0.2-0.8,0.5v0.1C18.8,7.8,19,8.2,19.4,8.3z
	 M20.2,4.7h0.2c0.3,0,0.6-0.2,0.7-0.5V4.1c0.1-0.4-0.2-0.8-0.5-0.8c-0.4-0.1-0.8,0.2-0.8,0.5v0.1C19.5,4.3,19.8,4.7,20.2,4.7
	L20.2,4.7z M26.2,19.6c0.1,0,0.3-0.1,0.4-0.1l3.6-2.2c0.3-0.2,0.4-0.7,0.3-1c-0.2-0.3-0.7-0.4-1-0.3l-3.6,2.2
	c-0.3,0.2-0.4,0.7-0.3,1C25.8,19.5,26,19.6,26.2,19.6z M31.9,14.7c-0.4,0.2-0.5,0.7-0.3,1c0.1,0.2,0.4,0.3,0.6,0.3
	c0.1,0,0.3-0.1,0.4-0.1h0.1c0.3-0.2,0.4-0.7,0.3-1C32.7,14.6,32.3,14.5,31.9,14.7z M36.1,13.1c-0.2-0.3-0.7-0.4-1-0.3H35
	c-0.3,0.2-0.4,0.7-0.3,1c0.1,0.2,0.4,0.3,0.6,0.3c0.1,0,0.3-0.1,0.4-0.1h0.1C36.2,13.8,36.3,13.4,36.1,13.1z"/>
<path d="M34.7,20.4H19.5l6.4-6.2l2.3-2.3c0.4-0.4,0.4-1,0-1.4l-1-1c-0.2-0.2-0.4-0.3-0.7-0.3c-0.3,0-0.5,0.1-0.7,0.3l-2.3,2.3
	l-9.3,8.6H4.8c-0.5,0-1,0.3-1,0.9c0,0.5,0.4,0.9,1,0.9h2.5v11.1c0,2,2,3.4,3.9,3.4l16.9,0c1.9,0,4-1.5,4-3.4V22.2h2.5
	c0.5,0,1-0.3,1-0.9C35.7,20.7,35.3,20.4,34.7,20.4L34.7,20.4z M26.5,10.7l0.4,0.4l-2,2l-0.4-0.4L26.5,10.7L26.5,10.7z M28.2,35
	c-4.5,0-16,0-16.9,0c-0.8,0-2.2-0.8-2.2-1.6V22.2h21.2c0,0,0,10.7,0,11.1C30.4,34.1,29,35,28.2,35L28.2,35z"/>
</svg>
