<?xml version="1.0" standalone="no"?><!DOCTYPE svg PUBLIC "-//W3C//DTD SVG 1.1//EN" "http://www.w3.org/Graphics/SVG/1.1/DTD/svg11.dtd"><svg t="1534295553463" class="icon" style="" viewBox="0 0 1365 1024" version="1.1" xmlns="http://www.w3.org/2000/svg" p-id="3842" xmlns:xlink="http://www.w3.org/1999/xlink" width="53.3203125" height="40"><defs><style type="text/css"></style></defs><path d="M688.933333 460.933333c28.133333-33.6 45.066667-76.933333 45.066667-124.133333 0-106.933333-86.666667-193.466667-193.466667-193.466667s-193.466667 86.666667-193.466666 193.466667c0 47.2 16.933333 90.533333 45.066666 124.133333-88.533333 51.333333-148 147.066667-148 256.8 0 132.266667 148.266667 198.266667 296.666667 198.266667C689.066667 916 837.333333 849.866667 837.333333 717.733333c-0.266667-109.6-59.866667-205.333333-148.4-256.8z m-251.066666-226.666666c27.466667-27.466667 63.866667-42.533333 102.533333-42.533334 38.666667 0 75.2 15.066667 102.666667 42.533334 27.466667 27.466667 42.533333 63.866667 42.533333 102.533333 0 38.666667-15.066667 75.2-42.533333 102.533333-27.333333 27.333333-63.866667 42.533333-102.533334 42.533334-38.666667 0-75.2-15.066667-102.533333-42.533334-27.333333-27.333333-42.533333-63.866667-42.533333-102.533333 0-38.666667 14.933333-75.066667 42.4-102.533333z m333.2 543.866666c-11.6 17.733333-28.8 33.466667-51.466667 46.933334-22.933333 13.6-50.4 24.266667-81.466667 31.733333-30.933333 7.333333-63.733333 11.066667-97.733333 11.066667s-66.8-3.733333-97.733333-11.066667c-31.2-7.333333-58.533333-18-81.466667-31.733333-22.533333-13.333333-39.866667-29.2-51.466667-46.933334-11.866667-18.133333-17.6-37.866667-17.6-60.266666 0-33.466667 6.533333-66 19.466667-96.533334 12.533333-29.6 30.4-56.133333 53.2-78.933333 19.066667-19.066667 40.8-34.8 64.8-46.666667 31.466667 21.866667 69.6 34.8 110.8 34.8 41.2 0 79.333333-12.8 110.8-34.8 23.866667 12 45.6 27.6 64.8 46.666667 22.8 22.8 40.666667 49.333333 53.2 78.933333 12.933333 30.666667 19.466667 63.066667 19.466667 96.533334 0 22.4-5.733333 42.133333-17.6 60.266666zM1052.933333 280.4H827.733333c-14.533333 0-26.4-11.866667-26.4-26.4s11.866667-26.4 26.4-26.4h225.2c14.533333 0 26.4 11.866667 26.4 26.4 0.133333 14.533333-11.866667 26.4-26.4 26.4zM1052.933333 480.266667H827.733333c-14.533333 0-26.4-11.866667-26.4-26.4s11.866667-26.4 26.4-26.4h225.2c14.533333 0 26.4 11.866667 26.4 26.4 0.133333 14.533333-11.866667 26.4-26.4 26.4zM1052.933333 680.933333H910.4c-14.533333 0-26.4-11.866667-26.4-26.4s11.866667-26.4 26.4-26.4h142.533333c14.533333 0 26.4 11.866667 26.4 26.4 0.133333 14.533333-11.866667 26.4-26.4 26.4z" fill="#525252" p-id="3843"></path></svg>